<svg viewBox="0 0 248 87" xmlns="http://www.w3.org/2000/svg"><g fill="none" fill-rule="evenodd"><rect fill="#0e1115" height="87" rx="20" width="248"/><g fill="#36dd71" transform="translate(19 16)"><path d="m2.75328903 40.2445178 17.86789637-10.7106934-1.6282382-4.3127254 5.1030788-5.2353908 6.4493422-1.3882651 1.8674895 2.2957582-2.9735521 3.0079078-2.5918894.815511-1.8532483 1.9012785.907636 2.5223943 1.8418554 1.9534333 2.5975858-.6903395 1.8485013-2.0273982 4.0359419-1.2773178 1.2029025 2.7025654-4.1650617 5.0997884-6.9781636 2.2066209-3.1302048-3.4801456-17.92770919 10.7457793c-.85067137-1.0933536-1.84090601-2.6418762-2.47416248-4.1287613zm51.55581177-21.8338836-14.1936797 3.8234188c.7823139 2.0786047 1.039604 3.2999746 1.2560695 4.646516l14.1680455-3.8177293c-.2259595-1.5115401-.6313576-3.0505799-1.2304353-4.6522055z"/><path d="m4.86857453 29.9776141c1.0054252 11.853357 10.96948327 21.174837 23.09629727 21.174837 9.162756 0 17.091279-5.3216832 20.8518921-13.0348997l4.615082 1.595936c-4.44134 9.6097536-14.1794385 16.2865126-25.4669741 16.2865126-14.8060491 0-26.94805368-11.4901702-27.9648718-26.0223859zm-4.79452055-4.8257387c1.4317103-14.1178224 13.38193412-25.1518754 27.89176722-25.1518754 15.472535 0 28.0341788 12.5465414 28.0341788 28.0004741 0 2.4787741-.3227994 4.8826349-.9304218 7.1717552l-4.6027397-1.5911947c.4522651-1.8257632.6802194-3.6997464.6788281-5.5805605 0-12.7779189-10.3865455-23.15197694-23.1798454-23.15197694-11.8277499 0-21.59812827 8.86631104-23.00610331 20.30337824h-4.88376509z"/><path d="m27.8908178 14.5246296c-7.4519191.0066379-13.5006103 6.0527982-13.5006103 13.4976547 0 7.4495978 6.0562865 13.4976547 13.5148515 13.4976547.3778652 0 .7528821-.0151723 1.123152-.0464651l1.3500611 4.7185844c-.8197782.1102212-1.6460407.1650003-2.4732131.1650003-10.1321036 0-18.35779194-8.2158005-18.35779194-18.3347743 0-10.1199221 8.22568834-18.33477266 18.35779194-18.33477266.2506442 0 .5012885.00474134.7500339.0151723zm5.5255663-3.9950555c7.4424251 2.3393786 12.8455174 9.2911354 12.8455174 17.4927102 0 7.5927864-4.6302726 14.113081-11.2220263 16.8962493l-1.345314-4.6986708c4.5647634-2.1667936 7.7243999-6.8171027 7.7243999-12.1975785 0-5.78349-3.6495321-10.7220726-8.7715991-12.6423165z"/></g><g fill="#fff" fill-rule="nonzero"><g transform="translate(85 19)"><path d="m5.87870622 17h-5.87870622v-17h5.93060918c1.66789944 0 3.10436654.33894857 4.30940132 1.0168457 1.2050348.67789714 2.1329584 1.65075302 2.7837708 2.91856766.6508125 1.26781464.9762187 2.78493373.9762187 4.55135727 0 1.77083337-.3256805 3.29236217-.9770415 4.56458667-.6513611 1.2722244-1.5836099 2.2483876-2.7967466 2.9284897-1.21313669.680102-2.66230525 1.020153-4.34750568 1.020153zm-2.37221835-3.0811462h2.22309229c1.04143496 0 1.91673826-.1898156 2.62590989-.5694466s1.24389869-.9690081 1.60418117-1.7681313c.36028248-.7991231.54042368-1.83062486.54042368-3.09450527 0-1.25955709-.1806687-2.2872111-.54200609-3.08296204-.36133742-.79575093-.89498844-1.38179906-1.60095306-1.75814437-.70596462-.37634532-1.57747014-.56451798-2.61451655-.56451798h-2.23613133z"/><path d="m23 17c-1.233879 0-2.2989625-.2713724-3.1952505-.8141173s-1.5878183-1.3013921-2.0745908-2.2759416-.7301587-2.1090187-.7301587-3.4034077c0-1.29865912.2433862-2.43637369.7301587-3.4131437s1.1783028-1.73652746 2.0745908-2.27927235c.896288-.5427449 1.9613715-.81411735 3.1952505-.81411735s2.2989625.27137245 3.1952505.81411735c.896288.54274489 1.5878183 1.30250234 2.0745908 2.27927235s.7301587 2.11448458.7301587 3.4131437c0 1.294389-.2433862 2.4288582-.7301587 3.4034077s-1.1783028 1.7331967-2.0745908 2.2759416-1.9613715.8141173-3.1952505.8141173zm.0190972-2.7022803c.5565476 0 1.0237269-.1656205 1.4015377-.4968614.3778109-.3312409.6630085-.7838201.8555928-1.3577376s.2888765-1.22598.2888765-1.9561876c0-.73353828-.0962922-1.38754374-.2888765-1.96201637s-.4777819-1.02841831-.8555928-1.36183705c-.3778108-.33341874-.8449901-.5001281-1.4015377-.5001281-.5693618 0-1.0461103.16670936-1.4302455.5001281-.3841353.33341874-.6724951.78736442-.8650794 1.36183705s-.2888765 1.22847809-.2888765 1.96201637c0 .7302076.0962922 1.3822701.2888765 1.9561876s.4809441 1.0264967.8650794 1.3577376c.3841352.3312409.8608837.4968614 1.4302455.4968614z"/><path d="m33.4750896 17-3.4750896-13h3.5815814l1.9839451 8.734375h.1131231l2.0705429-8.734375h3.5150078l2.0970682 8.6802877h.1131231l1.944027-8.6802877h3.5815814l-3.4750896 13h-3.7480154l-2.1970587-8.17921956h-.1596726l-2.1970587 8.17921956z"/><path d="m53.6087839 9.58097686v7.41902314h-3.6087839v-12.83290488h3.4391957v2.26583587h.1491846c.2916564-.74862093.776396-1.34126466 1.4542188-1.77793119.6778229-.43666653 1.5000607-.6549998 2.4667134-.6549998.9055303 0 1.6949325.19522714 2.3682065.58568143s1.1961709.94604555 1.5686908 1.66677378.5571017 1.5784614.5537902 2.57319951v8.17434528h-3.6088289v-7.53938384c.0033565-.78421567-.2004364-1.39800737-.6113787-1.84137512-.4109422-.44336774-.9782015-.66505161-1.7017778-.66505161-.4861528 0-.9149372.10386876-1.286353.31160628s-.660577.50739911-.8674834.89898478c-.2069064.39158566-.3120379.86365112-.3153943 1.41619637z"/><path d="m68 0v17h-3v-17z"/><path d="m77 17c-1.233879 0-2.2989625-.2713724-3.1952505-.8141173s-1.5878183-1.3013921-2.0745908-2.2759416-.7301587-2.1090187-.7301587-3.4034077c0-1.29865912.2433862-2.43637369.7301587-3.4131437s1.1783028-1.73652746 2.0745908-2.27927235c.896288-.5427449 1.9613715-.81411735 3.1952505-.81411735s2.2989625.27137245 3.1952505.81411735c.896288.54274489 1.5878183 1.30250234 2.0745908 2.27927235s.7301587 2.11448458.7301587 3.4131437c0 1.294389-.2433862 2.4288582-.7301587 3.4034077s-1.1783028 1.7331967-2.0745908 2.2759416-1.9613715.8141173-3.1952505.8141173zm.0190972-2.7022803c.5565476 0 1.0237269-.1656205 1.4015377-.4968614.3778109-.3312409.6630085-.7838201.8555928-1.3577376s.2888765-1.22598.2888765-1.9561876c0-.73353828-.0962922-1.38754374-.2888765-1.96201637s-.4777819-1.02841831-.8555928-1.36183705c-.3778108-.33341874-.8449901-.5001281-1.4015377-.5001281-.5693618 0-1.0461103.16670936-1.4302455.5001281-.3841353.33341874-.6724951.78736442-.8650794 1.36183705s-.2888765 1.22847809-.2888765 1.96201637c0 .7302076.0962922 1.3822701.2888765 1.9561876s.4809441 1.0264967.8650794 1.3577376c.3841352.3312409.8608837.4968614 1.4302455.4968614z"/><path d="m89.0785575 17c-.7821799 0-1.4803435-.1402618-2.0944907-.4207854s-1.0983618-.698596-1.4526438-1.2542173-.531423-1.2484924-.531423-2.0786132c0-.7022062.1243259-1.2903615.3729778-1.7644661.2486519-.4741045.5890736-.8560754 1.0212651-1.1459128.4321915-.2898373.9249307-.50969334 1.4782176-.65956796s1.134607-.25488939 1.7439604-.31504432c.7118155-.07211755 1.2867369-.14235525 1.7247644-.21071312s.7562935-.17117237.9547981-.30844351c.1985047-.13727114.297757-.34044354.297757-.60951719v-.04588522c0-.5206306-.159529-.92313026-.4785871-1.20749899-.3190581-.28436872-.7677986-.42655309-1.3462216-.42655309-.6136053 0-1.1020926.13752749-1.465462.41258245-.3633694.27505497-.6027046.62094577-.7180057 1.03767242l-3.1565239-.26249421c.1600709-.76560811.4746062-1.42867941.9436057-1.98921392.4689995-.5605345 1.0759352-.99255622 1.8208069-1.29606515.7448718-.30350893 1.60765-.45526339 2.5883346-.45526339.6861375 0 1.3418864.08230714 1.9672469.24692143s1.1818779.41835014 1.6695524.76120757c.4876745.34285742.8731786.78361613 1.1565125 1.32227612s.4250009 1.18370191.4250009 1.93512575v8.49824993h-3.233433v-1.7455608h-.0960426c-.1984212.3915197-.4622465.7365774-.7914757 1.0351731-.3292293.2985957-.7267388.5310124-1.1925285.6972502-.4657898.1662378-1.0017773.2493567-1.6079627.2493567zm.9796842-2.4083331c.5004718 0 .9425219-.1028145 1.3261502-.3084435.3836284-.205629.6843033-.4839951.9020248-.8350981.2177215-.3511031.3265822-.746468.3265822-1.1860945v-1.3387461c-.102462.0688706-.2467968.1322939-.4330044.1902699-.1862075.057976-.3932367.109928-.6210877.1558559-.227851.045928-.456223.0869427-.6851161.1230442-.2288932.0361015-.4367144.0678238-.6234639.0951669-.4012611.0590441-.7515622.1544675-1.0509032.28627s-.5319858.3084435-.6979343.529923-.2489228.4962781-.2489228.8243958c0 .4791032.1696793.8427884.5090381 1.0910557.3393587.2482672.7715711.3724008 1.2966371.3724008z"/><path d="m102.993636 17c-.935918 0-1.781275-.2476889-2.536069-.7430668-.7547938-.4953779-1.3530869-1.2253095-1.7948789-2.1897949-.4417921-.9644854-.6626881-2.1498767-.6626881-3.5561741 0-1.44123907.2273021-2.64192277.6819064-3.60205112s1.0603885-1.67912468 1.8173526-2.15698897c.756965-.4778643 1.586295-.71679645 2.487991-.71679645.685934 0 1.260189.11892144 1.722764.35676433s.836509.53254083 1.1218.88409381.503766.69904793.655426 1.04248487h.102539v-6.31847067h3.410221v16.796629h-3.365273v-2.014232h-.147487c-.158087.3477085-.383762.6918716-.677024 1.0324893s-.670408.623291-1.13144.8480201c-.461031.2247291-1.022744.3370936-1.68514.3370936zm1.083363-2.7818392c.54696 0 1.012499-.1544611 1.396615-.4633835s.677942-.7419776.881476-1.2991655c.203535-.557188.305303-1.2097609.305303-1.9577187 0-.75017904-.100703-1.40057341-.30211-1.95118311-.201406-.55060971-.494147-.97655267-.878221-1.27782887-.384075-.30127621-.851762-.45191431-1.403063-.45191431-.564155 0-1.03827.1550165-1.422345.46504949-.384074.31003299-.674665.7414436-.871773 1.29423182-.197108.55278823-.295662 1.19333655-.295662 1.92164498 0 .7326654.099618 1.3786814.298854 1.9380479.199237.5593665.490892.9962448.874967 1.3106348.384074.31439.85606.471585 1.415959.471585z"/><path d="m124 17c-1.233879 0-2.298962-.2713724-3.19525-.8141173-.896289-.5427449-1.587819-1.3013921-2.074591-2.2759416-.486773-.9745495-.730159-2.1090187-.730159-3.4034077 0-1.29865912.243386-2.43637369.730159-3.4131437.486772-.97677001 1.178302-1.73652746 2.074591-2.27927235.896288-.5427449 1.961371-.81411735 3.19525-.81411735s2.298962.27137245 3.19525.81411735c.896289.54274489 1.587819 1.30250234 2.074591 2.27927235.486773.97677001.730159 2.11448458.730159 3.4131437 0 1.294389-.243386 2.4288582-.730159 3.4034077-.486772.9745495-1.178302 1.7331967-2.074591 2.2759416-.896288.5427449-1.961371.8141173-3.19525.8141173zm.019097-2.7022803c.556548 0 1.023727-.1656205 1.401538-.4968614s.663008-.7838201.855593-1.3577376c.192584-.5739175.288876-1.22598.288876-1.9561876 0-.73353828-.096292-1.38754374-.288876-1.96201637-.192585-.57447263-.477782-1.02841831-.855593-1.36183705s-.84499-.5001281-1.401538-.5001281c-.569362 0-1.04611.16670936-1.430245.5001281-.384136.33341874-.672495.78736442-.86508 1.36183705-.192584.57447263-.288876 1.22847809-.288876 1.96201637 0 .7302076.096292 1.3822701.288876 1.9561876.192585.5739175.480944 1.0264967.86508 1.3577376.384135.3312409.860883.4968614 1.430245.4968614z"/><path d="m135.608784 9.58097686v7.41902314h-3.608784v-12.83290488h3.439196v2.26583587h.149184c.291657-.74862093.776396-1.34126466 1.454219-1.77793119s1.500061-.6549998 2.466714-.6549998c.90553 0 1.694932.19522714 2.368206.58568143s1.196171.94604555 1.568691 1.66677378.557101 1.5784614.55379 2.57319951v8.17434528h-3.608829v-7.53938384c.003357-.78421567-.200436-1.39800737-.611379-1.84137512-.410942-.44336774-.978201-.66505161-1.701777-.66505161-.486153 0-.914938.10386876-1.286353.31160628-.371416.20773752-.660577.50739911-.867484.89898478-.206906.39158566-.312038.86365112-.315394 1.41619637z"/></g><path d="m20.6153575 7.14715905c2.049443 0 3.700975.58583271 4.8935561 1.78707978 1.1931571 1.23256877 1.8047076 3.01906857 1.8047076 5.42214277v9.4272663h-3.8236306v-8.9342388c0-1.4477608-.3051994-2.526041-.9478457-3.2655823-.6420705-.7087996-1.5288764-1.0788603-2.7220334-1.0788603-1.284141 0-2.3246983.4321242-3.0894244 1.2638906-.7641503.8625082-1.1620612 2.0944969-1.1620612 3.6658047v8.3489861h-3.8236306v-8.9342388c0-1.4477608-.3051994-2.526041-.9478457-3.2655823-.6420705-.7087996-1.52945227-1.0788603-2.72203343-1.0788603-1.31523678 0-2.32469828.4321242-3.08942439 1.2638906-.76415027.8317664-1.16206122 2.0637552-1.16206122 3.6658047v8.3489861h-3.82363056v-16.45145852h3.63993506v2.09507698c.6121264-.7395413 1.37627666-1.29347222 2.29417833-1.6942746.91732583-.40022235 1.92678733-.58583271 3.05832861-.58583271 1.2236769 0 2.3246983.21577205 3.2731199.67805786.9478458.49302753 1.6820519 1.17050535 2.2325626 2.06433526.6731663-.86308819 1.5294522-1.54056602 2.5999536-2.03359355 1.0705014-.46228581 2.2325626-.70879957 3.5172794-.70879957zm18.9937697 16.85226095c-1.651532 0-3.1498884-.3694807-4.4651252-1.0782802-1.294803-.6886794-2.3668362-1.736299-3.0894244-3.0190686-.7647261-1.2633105-1.1315413-2.7110714-1.1315413-4.3444426 0-1.6322111.3668152-3.0799719 1.1315413-4.3432825.7325733-1.26729425 1.8027749-2.30267583 3.0894244-2.98890685 1.3152368-.70821954 2.8135932-1.0782802 4.4651252-1.0782802 1.6826278 0 3.1809842.37006066 4.496221 1.07886024 1.3152368.70821954 2.3552182 1.72501631 3.1199443 2.98832681.7342062 1.2627305 1.1010214 2.7110714 1.1010214 4.3438626 0 1.6327911-.3668152 3.080552-1.1010214 4.3438625-.7647261 1.2934722-1.8047075 2.310269-3.1199443 3.0190686-1.3152368.7087995-2.8135932 1.0788602-4.496221 1.0788602zm0-3.2963241c1.4073724 0 2.5694337-.4622858 3.4867595-1.4170191.9179017-.9553133 1.3762766-2.1878822 1.3762766-3.7278681 0-1.540566-.4583749-2.7725548-1.3762766-3.7278682-.9173258-.9553133-2.0793871-1.4170191-3.4867595-1.4170191-1.4067966 0-2.5688578.4617058-3.4562396 1.4170191-.9173258.9547333-1.3762766 2.1873022-1.3762766 3.7278682 0 1.5399859.4589508 2.7725548 1.3762766 3.7278681.8868059.9547333 2.0500188 1.4170191 3.4562396 1.4170191zm28.2925628-19.77910431v22.85965631h-3.670455v-2.1258187c-.6263608.7621131-1.4229977 1.363982-2.3246983 1.7563381-.9478458.4002223-1.9578831.5858327-3.0894244.5858327-1.5593963 0-2.9667688-.3393189-4.2209657-1.0481185-1.253621-.7082196-2.2630825-1.6942746-2.9667688-2.9883269-.7031103-1.2633105-1.0705013-2.7418131-1.0705013-4.4053459 0-1.6635329.367391-3.1426155 1.0710772-4.405926.7031104-1.26273053 1.7125719-2.24878559 2.9667688-2.95758516 1.253621-.70821954 2.6604176-1.04753849 4.2209656-1.04753849 1.0705014 0 2.0793871.18561036 2.9667688.55451096.8829045.36696134 1.6683591.93684435 2.2936025 1.66411291v-8.44179133zm-8.6256269 19.77910431c.9179017 0 1.7436677-.215772 2.4778739-.6473161.7336303-.4002224 1.3146609-1.0162168 1.7430918-1.7864998s.6420705-1.6942746.6420705-2.7110713c0-1.0167968-.2136396-1.9407884-.6420705-2.7110714s-1.0094615-1.3862774-1.7430918-1.8178215c-.7342062-.4002223-1.5605481-.6159944-2.4778739-.6159944s-1.7430918.215192-2.477298.6159944c-.7342061.4309641-1.3152368 1.0475385-1.7436676 1.8178215-.4278551.770283-.6420705 1.6936946-.6420705 2.7110714 0 1.0167967.2142154 1.9407883.6420705 2.7110713.4284308.770283 1.0094615 1.3862774 1.7436676 1.7864998.7342062.4315441 1.5599722.6473161 2.477298.6473161zm17.189638-10.96783235c1.1010213-1.72501631 3.0278086-2.5881045 5.8114577-2.5881045v3.66638475c-.2921493-.0582738-.5890033-.0893398-.8868059-.0928052-1.4989322 0-2.6615693.4315441-3.4873353 1.2946323-.825766.8932498-1.2541969 2.1565604-1.2541969 3.7893515v7.9789255h-3.8230547v-16.45145852h3.6393592v2.40307417zm8.961922-2.40307417h3.8230547v16.45145852h-3.8236305v-16.45145852zm1.9267873-2.71107137c-.7036862 0-1.2847168-.21577204-1.7436676-.67747782-.455837-.41786958-.7118485-1.01260105-.7031104-1.6333712 0-.64673611.2447354-1.20124707.7031104-1.66353288.4589508-.43096406 1.0399814-.64673611 1.7436676-.64673611.7031104 0 1.284141.21577205 1.7430919.61599439.4589508.4315441.7036862.95531334.7036862 1.60204945 0 .67805786-.2142155 1.23256882-.6731663 1.6942746-.458375.46228581-1.0705014.70879957-1.7736118.70879957zm16.0880406 2.52604104c2.049443 0 3.700975.61657443 4.955172 1.81782149 1.254197 1.20182706 1.865747 3.01906856 1.865747 5.39140106v9.4272663h-3.82363v-8.9342388c0-1.4477608-.336295-2.526041-1.008886-3.2655823-.673166-.7087996-1.621012-1.0788603-2.875209-1.0788603-1.406796 0-2.507818.4321242-3.3341595 1.2638906-.825766.8625082-1.2231011 2.0944969-1.2231011 3.6965464v8.3182444h-3.8236305v-16.45145852h3.639935v2.12581869c.6426464-.77028301 1.4378924-1.32479397 2.3857381-1.72501631.948422-.40022235 2.049443-.58583271 3.242024-.58583271zm21.410604 15.74323895c-.478654.3852596-1.030205.6682688-1.621012.8317665-.667435.1869157-1.357274.2802132-2.050019.2773236-1.804132 0-3.180408-.4623539-4.15935-1.4170872-.978942-.9553134-1.468412-2.3108491-1.468412-4.1280905v-7.9180221h-2.690938v-3.08055202h2.691514v-3.75860986h3.82363v3.75860986h4.373565v3.08055202h-4.374141v7.8252169c0 .8010247.183696 1.4170191.581607 1.8178215.397335.4315441.947845.6467361 1.681476.6467361.856862 0 1.560548-.215192 2.141578-.6774778zm12.326026-15.74323895c2.049443 0 3.700975.61657443 4.955172 1.81782149 1.253621 1.20182706 1.865747 3.01906856 1.865747 5.39140106v9.4272663h-3.823631v-8.9342388c0-1.4477608-.336295-2.526041-1.009461-3.2655823-.67259-.7087996-1.621012-1.0788603-2.874633-1.0788603-1.407373 0-2.508394.4321242-3.33416 1.2638906-.825766.8625082-1.223101 2.0944969-1.223101 3.6965464v8.3182444h-3.823631v-22.85907628h3.823631v8.3176644c.64207-.67747782 1.406797-1.20124706 2.355218-1.57130773.917326-.33873891 1.957307-.52376924 3.088849-.52376924z" transform="translate(85 45)"/></g></g></svg>